<svg width="15" height="16" viewBox="0 0 15 16" fill="none" xmlns="http://www.w3.org/2000/svg">
<path d="M6.07422 1.62086C6.18359 1.48415 6.40234 1.48415 6.53906 1.62086L12.2539 7.33571C12.3906 7.47243 12.3906 7.66383 12.2539 7.80055L6.53906 13.5154C6.40234 13.6521 6.18359 13.6521 6.07422 13.5154L5.52734 12.9959C5.39062 12.8591 5.39062 12.6404 5.52734 12.531L9.76562 8.2654H0.441406C0.25 8.2654 0.113281 8.12868 0.113281 7.93727V7.17165C0.113281 7.00758 0.25 6.84352 0.441406 6.84352H9.76562L5.52734 2.60524C5.39062 2.49586 5.39062 2.27711 5.52734 2.1404L6.07422 1.62086Z" fill="white"/>
</svg>
