<svg width="194" height="94" viewBox="0 0 194 94" fill="none" xmlns="http://www.w3.org/2000/svg">
<path d="M9.09 23.5C7.83 26.92 6.57 30.34 5.355 33.715C5.22 34.165 5.13 34.57 5.13 34.885C5.13 35.965 5.85 36.55 7.335 36.64V37H0.9V36.64C2.43 36.64 3.96 35.83 4.635 34.255C5.49 31.915 14.175 8.29 14.175 7.93C13.68 7.165 12.69 6.715 11.835 6.67V6.31H19.44V6.67C18.045 6.67 17.505 6.985 17.505 7.705C17.505 7.84 17.505 7.975 17.55 8.11L25.695 32.725L25.965 33.625C26.01 33.805 26.01 33.94 26.01 34.12C26.01 35.47 25.11 36.595 23.85 36.955C23.58 37.045 23.355 37.045 23.085 37.045C22.23 37.045 21.375 36.685 20.79 36.01C18.36 32.95 15.84 29.71 13.365 26.605C12.6 25.615 10.935 23.455 9.405 23.455C9.27 23.455 9.18 23.5 9.09 23.5ZM9.315 22.87L9.225 23.005C9.315 23.005 9.405 22.96 9.54 22.96C11.025 22.96 12.555 24.76 13.365 25.795C14.355 27.055 15.57 28.54 16.605 29.845C18.18 31.87 19.53 33.49 20.115 34.3L20.97 35.335C21.6 36.19 22.185 36.595 22.635 36.595C22.995 36.595 23.265 36.28 23.265 35.695C23.265 35.38 23.175 34.93 22.995 34.39C22.905 34.12 22.815 33.805 22.68 33.445C19.98 25.255 17.415 16.705 14.49 8.605L9.315 22.87ZM27.7945 6.4H32.7895L43.4095 32.545C46.4245 23.815 49.3945 15.13 52.4095 6.4H57.8995V6.76C56.1895 6.76 55.2445 8.065 55.2445 9.685V33.76C55.2445 34.39 55.3795 35.02 55.7395 35.515C56.1445 36.235 56.8195 36.595 57.7195 36.64H57.8995V37H49.7095V36.64H50.1145C50.8795 36.55 51.4645 36.235 51.8695 35.605C52.2295 35.02 52.4095 34.345 52.4095 33.67V7.885L43.6795 33.22L42.3745 37H41.9245V36.91L30.8545 9.64V33.94C30.8995 34.525 31.0795 35.065 31.3495 35.515C31.7995 36.235 32.4295 36.595 33.3295 36.64H33.5095V37H27.7945V36.64H28.1545C28.9645 36.55 29.5495 36.235 29.9095 35.605C30.2245 35.155 30.3595 34.66 30.4495 34.075V9.325C30.3595 8.74 30.2245 8.245 29.9095 7.795C29.5495 7.255 28.9645 6.85 28.1995 6.805L28.1545 6.76H27.7945V6.4ZM70.4088 37H59.6988V36.64C60.5988 36.64 61.3638 36.37 61.8588 35.605C62.2188 35.02 62.3988 34.345 62.3988 33.67V9.685C62.3988 9.01 62.2188 8.29 61.8588 7.705C61.3188 6.94 60.5988 6.67 59.6988 6.67V6.31H67.9788C69.5538 6.31 71.6688 6.805 73.1538 7.57C75.4038 8.875 77.1138 11.08 77.1138 13.69C77.1138 15.94 76.0338 17.92 74.3688 19.225C74.0538 19.495 73.7838 19.675 73.5588 19.81C73.0188 20.17 72.0288 20.575 71.3988 20.8C71.1738 20.89 70.9038 21.025 70.6338 21.16C69.3738 21.745 68.2488 22.825 68.0688 24.22C68.7438 22.915 69.6888 22.15 71.0838 21.79C71.4888 21.7 72.0288 21.655 72.5688 21.655H73.1088C74.0988 21.745 74.9538 22.015 75.6738 22.51C76.5288 23.14 77.2038 23.905 77.6988 24.805C78.4188 25.975 78.7788 27.37 78.7788 28.855C78.7788 33.58 74.6838 36.91 70.4088 37ZM65.2338 6.67V36.64H68.6988C72.5688 36.64 75.7188 33.13 75.7188 28.855C75.7188 26.875 75.1338 25.075 74.0088 23.725C73.3338 22.87 72.5688 22.6 71.6238 22.6H71.2188C70.1388 22.69 69.2388 22.915 68.2938 24.085C68.2038 24.22 68.1138 24.355 68.0238 24.445H67.9788V24.355C67.9788 21.97 69.6438 21.295 71.0388 19.945C71.7138 19.315 72.6138 18.28 73.0638 17.47C73.6488 16.39 74.0088 15.085 74.0088 13.69C74.0088 10.18 71.5788 6.67 67.8888 6.67H65.2338ZM93.3529 6.76H86.1079V15.76C89.3929 16.12 90.0229 22.33 92.9029 22.33C93.3979 22.33 93.9829 22.15 94.6579 21.7L94.4329 22.15C93.4879 22.69 92.7229 22.87 92.0479 22.87C88.6279 22.87 88.4929 16.885 86.1079 16.21V21.565C86.1079 24.31 86.0629 27.055 86.0629 29.8C86.0629 31.15 86.0629 32.545 86.1079 33.895C86.1529 35.38 87.0079 36.595 88.5379 36.73H93.4879C95.1079 36.595 96.2329 34.255 96.9979 29.305H97.3579L96.9529 36.73V37.09H80.5729V36.73H80.6629C82.7779 36.73 83.2729 34.93 83.2729 33.085C83.2279 33.085 83.2279 30.565 83.2279 27.145V15.94C83.2729 13.69 83.2729 11.755 83.2729 10.54V9.46C83.2279 8.875 83.0479 8.29 82.7329 7.795C82.3729 7.255 81.7879 6.85 80.9779 6.76H80.5729V6.4H87.3679C91.6429 6.355 96.2329 6.265 96.9979 5.635C97.1329 8.47 97.2679 11.305 97.4479 14.14H97.0879C96.8179 12.43 96.0529 6.895 93.3529 6.76ZM104.785 6.805V33.85C104.785 35.38 105.685 36.73 107.35 36.73H107.44V37.09H99.2496V36.73H99.3396C101.095 36.73 101.905 35.335 101.95 33.76V9.775C101.95 8.11 101.095 6.76 99.2496 6.76V6.4H109.195C110.23 6.4 111.175 6.535 112.12 6.805C115.675 7.885 118.285 10.855 118.285 14.41C118.285 16.48 117.385 18.37 115.945 19.765C113.74 21.97 111.715 21.79 108.97 22.42C107.71 22.69 106.54 23.275 106.045 24.535C106.765 24.085 107.575 23.86 108.385 23.77H108.835C110.365 23.77 111.895 24.4 112.705 25.435C114.19 27.37 115.225 29.935 116.62 32.14C117.475 33.58 119.275 36.775 121.3 36.775C121.435 36.775 121.525 36.73 121.66 36.73V37.09C121.165 37.18 120.715 37.225 120.265 37.225C117.025 37.225 115 34.93 113.335 32.005C112.21 29.935 110.995 27.91 109.825 25.84C109.33 24.985 108.43 24.49 107.395 24.49C106.855 24.49 106.315 24.625 105.775 24.895C105.865 23.905 106.405 23.275 107.17 22.825C108.655 21.97 110.41 21.745 111.85 20.755C113.875 19.405 115.225 17.065 115.225 14.41C115.225 10.225 111.85 6.805 107.71 6.805H104.785Z" fill="#8B1839"/>
<path d="M2.655 82.145C1.89 82.19 1.485 82.595 1.35 83.81H0.9V73.46H1.395C1.485 76.25 2.025 78.725 3.465 80.57C5.265 82.865 7.785 83.495 10.53 83.495H10.665C14.265 83.495 17.235 81.605 17.28 77.915V77.825C17.28 72.92 13.41 70.625 9.45 68.105C5.445 65.675 1.71 63.38 1.71 58.43L1.755 57.71C2.655 53.12 5.985 51.59 10.17 51.59H10.395C12.6 51.635 14.805 52.085 16.335 52.85C16.74 53.03 17.145 53.12 17.46 53.12C18.315 53.12 18.765 52.535 18.765 51.545H19.215V60.5H18.675C18.45 56 15.435 52.04 10.485 52.04H10.395C7.11 52.085 4.815 54.245 4.725 57.53V57.665C4.725 62.12 9.585 64.82 13.95 67.79C17.46 70.175 20.43 72.47 20.43 76.655V77.105C20.07 82.235 14.895 83.81 10.575 83.9H10.305C6.705 83.9 3.825 82.145 2.655 82.145ZM37.9027 51.995C34.2127 51.995 31.3777 53.255 29.3527 55.73C27.3277 58.16 26.2927 61.535 26.2927 65.81C26.2927 69.05 26.8327 72.065 28.0027 74.72C29.1727 77.42 30.7927 79.535 32.8627 81.065C34.9777 82.595 37.3177 83.405 39.9727 83.405C42.3577 83.405 44.4727 82.955 46.5427 81.785C48.0727 80.885 49.2427 79.895 50.2327 78.77V79.94C47.4877 82.325 43.7527 83.9 39.2077 83.945H38.8477C29.6227 83.945 22.8727 77.465 22.8727 67.88V67.79C22.9177 58.43 29.2627 51.545 38.8477 51.545H39.2077C41.9977 51.59 44.4727 52.085 46.4977 52.985C47.2177 53.3 47.8477 53.525 48.4327 53.525C49.1977 53.525 49.7827 53.075 49.8277 51.77H50.2327V60.77H49.8277C49.5577 57.71 47.3077 55.505 45.1927 54.155C43.1227 52.76 40.6477 51.995 37.9027 51.995ZM77.8215 52.76H77.5965C76.0215 52.805 75.1215 54.2 75.1215 55.685C75.1665 59.69 75.1665 63.695 75.1665 67.7C75.1665 71.705 75.1665 75.71 75.1215 79.715C75.1215 80.39 75.2565 81.02 75.6615 81.605C76.1565 82.415 76.9215 82.73 77.8215 82.73V83.09H69.6315V82.73C70.4865 82.73 71.2515 82.46 71.7465 81.695C72.0615 81.245 72.1965 80.705 72.2865 80.165V70.31C70.8915 70.76 69.6765 70.94 68.6865 70.94C62.7015 70.94 62.7015 64.46 58.2465 64.19V80.03C58.3365 81.47 59.1915 82.685 60.7215 82.73H60.9465V83.09H52.7115V82.73H52.8015C54.3765 82.73 55.2315 81.605 55.3665 80.165C55.4115 80.03 55.4115 79.895 55.4115 79.715V55.775C55.4115 55.1 55.2315 54.38 54.8715 53.795C54.4665 53.255 53.9265 52.85 53.1165 52.76H52.7115V52.4H60.9465V52.76C59.1915 52.76 58.2465 54.065 58.2465 55.685V63.785C64.0515 63.785 65.5815 70.265 70.1265 70.265C70.7565 70.265 71.4765 70.13 72.2865 69.815V55.775C72.2865 54.11 71.4315 52.76 69.6315 52.76V52.4H77.8215V52.76ZM87.7961 69.5C86.5361 72.92 85.2761 76.34 84.0611 79.715C83.9261 80.165 83.8361 80.57 83.8361 80.885C83.8361 81.965 84.5561 82.55 86.0411 82.64V83H79.6061V82.64C81.1361 82.64 82.6661 81.83 83.3411 80.255C84.1961 77.915 92.8811 54.29 92.8811 53.93C92.3861 53.165 91.3961 52.715 90.5411 52.67V52.31H98.1461V52.67C96.7511 52.67 96.2111 52.985 96.2111 53.705C96.2111 53.84 96.2111 53.975 96.2561 54.11L104.401 78.725L104.671 79.625C104.716 79.805 104.716 79.94 104.716 80.12C104.716 81.47 103.816 82.595 102.556 82.955C102.286 83.045 102.061 83.045 101.791 83.045C100.936 83.045 100.081 82.685 99.4961 82.01C97.0661 78.95 94.5461 75.71 92.0711 72.605C91.3061 71.615 89.6411 69.455 88.1111 69.455C87.9761 69.455 87.8861 69.5 87.7961 69.5ZM88.0211 68.87L87.9311 69.005C88.0211 69.005 88.1111 68.96 88.2461 68.96C89.7311 68.96 91.2611 70.76 92.0711 71.795C93.0611 73.055 94.2761 74.54 95.3111 75.845C96.8861 77.87 98.2361 79.49 98.8211 80.3L99.6761 81.335C100.306 82.19 100.891 82.595 101.341 82.595C101.701 82.595 101.971 82.28 101.971 81.695C101.971 81.38 101.881 80.93 101.701 80.39C101.611 80.12 101.521 79.805 101.386 79.445C98.6861 71.255 96.1211 62.705 93.1961 54.605L88.0211 68.87ZM123.286 75.305L122.836 83.09H106.501V82.73H106.906C108.481 82.595 109.201 81.2 109.201 79.715V55.775C109.201 54.065 108.346 52.76 106.501 52.76V52.4H114.691V52.76H114.601C112.936 52.76 112.036 54.11 112.036 55.685V82.73H119.281C121.891 82.73 122.656 77.015 122.926 75.305H123.286ZM143.449 80.84L135.529 70.58C134.989 69.86 134.404 69.545 133.774 69.545C133.009 69.545 132.244 70.04 131.434 70.94C131.299 70.49 131.254 70.085 131.254 69.68C131.254 68.69 131.614 67.88 132.334 66.98L141.514 55.505C142.009 54.875 142.279 54.38 142.279 53.975C142.279 53.255 141.424 52.895 140.029 52.805V52.4H148.264V52.805H148.039C145.609 52.805 143.674 53.57 142.054 55.505L132.829 67.07C132.064 68.015 131.524 68.96 131.524 70.175V70.58C132.019 69.365 132.874 68.645 133.774 68.195C134.179 68.015 134.629 67.925 135.034 67.925C136.069 67.925 137.104 68.42 138.004 69.59C140.659 73.055 143.539 76.79 146.329 80.345C147.679 81.965 148.939 82.685 149.929 82.73V83.135H149.524C147.364 83.135 144.889 82.505 143.449 80.84ZM133.279 52.49V52.85C131.569 52.85 130.624 54.155 130.624 55.775V79.94C130.624 80.57 130.759 81.2 131.119 81.695C131.614 82.505 132.379 82.82 133.279 82.82V83.18H125.089V82.82C125.944 82.82 126.709 82.55 127.204 81.785C127.609 81.2 127.744 80.525 127.789 79.85V55.865C127.789 54.2 126.889 52.85 125.089 52.85V52.49H133.279ZM164.5 52.76H157.255V61.76C160.54 62.12 161.17 68.33 164.05 68.33C164.545 68.33 165.13 68.15 165.805 67.7L165.58 68.15C164.635 68.69 163.87 68.87 163.195 68.87C159.775 68.87 159.64 62.885 157.255 62.21V67.565C157.255 70.31 157.21 73.055 157.21 75.8C157.21 77.15 157.21 78.545 157.255 79.895C157.3 81.38 158.155 82.595 159.685 82.73H164.635C166.255 82.595 167.38 80.255 168.145 75.305H168.505L168.1 82.73V83.09H151.72V82.73H151.81C153.925 82.73 154.42 80.93 154.42 79.085C154.375 79.085 154.375 76.565 154.375 73.145V61.94C154.42 59.69 154.42 57.755 154.42 56.54V55.46C154.375 54.875 154.195 54.29 153.88 53.795C153.52 53.255 152.935 52.85 152.125 52.76H151.72V52.4H158.515C162.79 52.355 167.38 52.265 168.145 51.635C168.28 54.47 168.415 57.305 168.595 60.14H168.235C167.965 58.43 167.2 52.895 164.5 52.76ZM175.932 52.805V79.85C175.932 81.38 176.832 82.73 178.497 82.73H178.587V83.09H170.397V82.73H170.487C172.242 82.73 173.052 81.335 173.097 79.76V55.775C173.097 54.11 172.242 52.76 170.397 52.76V52.4H180.342C181.377 52.4 182.322 52.535 183.267 52.805C186.822 53.885 189.432 56.855 189.432 60.41C189.432 62.48 188.532 64.37 187.092 65.765C184.887 67.97 182.862 67.79 180.117 68.42C178.857 68.69 177.687 69.275 177.192 70.535C177.912 70.085 178.722 69.86 179.532 69.77H179.982C181.512 69.77 183.042 70.4 183.852 71.435C185.337 73.37 186.372 75.935 187.767 78.14C188.622 79.58 190.422 82.775 192.447 82.775C192.582 82.775 192.672 82.73 192.807 82.73V83.09C192.312 83.18 191.862 83.225 191.412 83.225C188.172 83.225 186.147 80.93 184.482 78.005C183.357 75.935 182.142 73.91 180.972 71.84C180.477 70.985 179.577 70.49 178.542 70.49C178.002 70.49 177.462 70.625 176.922 70.895C177.012 69.905 177.552 69.275 178.317 68.825C179.802 67.97 181.557 67.745 182.997 66.755C185.022 65.405 186.372 63.065 186.372 60.41C186.372 56.225 182.997 52.805 178.857 52.805H175.932Z" fill="#8B1839"/>
</svg>
