<svg width="37" height="26" viewBox="0 0 37 26" fill="none" xmlns="http://www.w3.org/2000/svg">
<path d="M7.08758 14.5C6.10758 17.16 5.12758 19.82 4.18258 22.445C4.07758 22.795 4.00758 23.11 4.00758 23.355C4.00758 24.195 4.56758 24.65 5.72258 24.72V25H0.717578V24.72C1.90758 24.72 3.09758 24.09 3.62258 22.865C4.28758 21.045 11.0426 2.67 11.0426 2.39C10.6576 1.795 9.88758 1.445 9.22258 1.41V1.13H15.1376V1.41C14.0526 1.41 13.6326 1.655 13.6326 2.215C13.6326 2.32 13.6326 2.425 13.6676 2.53L20.0026 21.675L20.2126 22.375C20.2476 22.515 20.2476 22.62 20.2476 22.76C20.2476 23.81 19.5476 24.685 18.5676 24.965C18.3576 25.035 18.1826 25.035 17.9726 25.035C17.3076 25.035 16.6426 24.755 16.1876 24.23C14.2976 21.85 12.3376 19.33 10.4126 16.915C9.81758 16.145 8.52258 14.465 7.33258 14.465C7.22758 14.465 7.15758 14.5 7.08758 14.5ZM7.26258 14.01L7.19258 14.115C7.26258 14.115 7.33258 14.08 7.43758 14.08C8.59258 14.08 9.78258 15.48 10.4126 16.285C11.1826 17.265 12.1276 18.42 12.9326 19.435C14.1576 21.01 15.2076 22.27 15.6626 22.9L16.3276 23.705C16.8176 24.37 17.2726 24.685 17.6226 24.685C17.9026 24.685 18.1126 24.44 18.1126 23.985C18.1126 23.74 18.0426 23.39 17.9026 22.97C17.8326 22.76 17.7626 22.515 17.6576 22.235C15.5576 15.865 13.5626 9.215 11.2876 2.915L7.26258 14.01ZM23.0005 24.335C22.4055 24.37 22.0905 24.685 21.9855 25.63H21.6355V17.58H22.0205C22.0905 19.75 22.5105 21.675 23.6305 23.11C25.0305 24.895 26.9905 25.385 29.1255 25.385H29.2305C32.0305 25.385 34.3405 23.915 34.3755 21.045V20.975C34.3755 17.16 31.3655 15.375 28.2855 13.415C25.1705 11.525 22.2655 9.74 22.2655 5.89L22.3005 5.33C23.0005 1.76 25.5905 0.57 28.8455 0.57H29.0205C30.7355 0.604999 32.4505 0.954999 33.6405 1.55C33.9555 1.69 34.2705 1.76 34.5155 1.76C35.1805 1.76 35.5305 1.305 35.5305 0.534998H35.8805V7.5H35.4605C35.2855 4 32.9405 0.919999 29.0905 0.919999H29.0205C26.4655 0.954999 24.6805 2.635 24.6105 5.19V5.295C24.6105 8.76 28.3905 10.86 31.7855 13.17C34.5155 15.025 36.8255 16.81 36.8255 20.065V20.415C36.5455 24.405 32.5205 25.63 29.1605 25.7H28.9505C26.1505 25.7 23.9105 24.335 23.0005 24.335Z" fill="#8B1839"/>
</svg>
