<svg width="13" height="9" viewBox="0 0 13 9" fill="none" xmlns="http://www.w3.org/2000/svg">
<path d="M10.8926 0C11.502 0 12.0176 0.515625 12.0176 1.125V7.875C12.0176 8.50781 11.502 9 10.8926 9H1.14258C0.509766 9 0.0175781 8.50781 0.0175781 7.875V1.125C0.0175781 0.515625 0.509766 0 1.14258 0H10.8926ZM10.8926 1.125H1.14258V2.08594C1.6582 2.53125 2.50195 3.1875 4.2832 4.59375C4.68164 4.89844 5.45508 5.64844 6.01758 5.625C6.55664 5.64844 7.33008 4.89844 7.72852 4.59375C9.50977 3.1875 10.3535 2.53125 10.8926 2.08594V1.125ZM1.14258 7.875H10.8926V3.53906C10.3535 3.96094 9.58008 4.57031 8.43164 5.48438C7.89258 5.88281 7.00195 6.77344 6.01758 6.75C5.00977 6.77344 4.0957 5.88281 3.58008 5.48438C2.43164 4.57031 1.6582 3.96094 1.14258 3.53906V7.875Z" fill="#8B1839"/>
</svg>
