<svg width="15" height="16" viewBox="0 0 15 16" fill="none" xmlns="http://www.w3.org/2000/svg">
<path d="M4.78125 15.0293H1.59375C0.697266 15.0293 0 14.332 0 13.4355V1.74805C0 0.884766 0.697266 0.154297 1.59375 0.154297H4.78125C5.64453 0.154297 6.375 0.884766 6.375 1.74805V13.4355C6.375 14.332 5.64453 15.0293 4.78125 15.0293ZM14.875 13.4355C14.875 14.332 14.1445 15.0293 13.2812 15.0293H10.0938C9.19727 15.0293 8.5 14.332 8.5 13.4355V1.74805C8.5 0.884766 9.19727 0.154297 10.0938 0.154297H13.2812C14.1445 0.154297 14.875 0.884766 14.875 1.74805V13.4355Z" fill="white"/>
</svg>
