<svg width="15" height="16" viewBox="0 0 15 16" fill="none" xmlns="http://www.w3.org/2000/svg">
<path d="M14.8828 14.6152C15.0293 14.7617 15.0293 14.9961 14.8828 15.1133L14.209 15.7871C14.0918 15.9336 13.8574 15.9336 13.7109 15.7871L10.166 12.2422C10.1074 12.1543 10.0781 12.0664 10.0781 11.9785V11.5977C8.99414 12.5059 7.61719 13.0625 6.09375 13.0625C2.72461 13.0625 0 10.3379 0 6.96875C0 3.62891 2.72461 0.875 6.09375 0.875C9.43359 0.875 12.1875 3.62891 12.1875 6.96875C12.1875 8.49219 11.6016 9.89844 10.6934 10.9531H11.0742C11.1621 10.9531 11.25 11.0117 11.3379 11.0703L14.8828 14.6152ZM6.09375 11.6562C8.67188 11.6562 10.7812 9.57617 10.7812 6.96875C10.7812 4.39062 8.67188 2.28125 6.09375 2.28125C3.48633 2.28125 1.40625 4.39062 1.40625 6.96875C1.40625 9.57617 3.48633 11.6562 6.09375 11.6562Z" fill="#8B1839"/>
</svg>
